<?xml version="1.0" encoding="UTF-8"?>
<!DOCTYPE svg PUBLIC "-//W3C//DTD SVG 1.1//EN" "http://www.w3.org/Graphics/SVG/1.1/DTD/svg11.dtd">
<!-- Creator: CorelDRAW 2019 (64-Bit) -->
<svg xmlns="http://www.w3.org/2000/svg" xml:space="preserve" width="3300px" height="2550px" version="1.1" style="shape-rendering:geometricPrecision; text-rendering:geometricPrecision; image-rendering:optimizeQuality; fill-rule:evenodd; clip-rule:evenodd"
viewBox="0 0 3300 2550"
 xmlns:xlink="http://www.w3.org/1999/xlink">
 <defs>
  <style type="text/css">
   <![CDATA[
    .str0 {stroke:black;stroke-width:16.67;stroke-miterlimit:2.61313}
    .fil0 {fill:none}
    .fil4 {fill:none;fill-rule:nonzero}
    .fil5 {fill:black;fill-rule:nonzero}
    .fil2 {fill:#00AFEF;fill-rule:nonzero}
    .fil3 {fill:#EC268F;fill-rule:nonzero}
    .fil7 {fill:#FEFEFE;fill-rule:nonzero}
    .fil6 {fill:#FFF212;fill-rule:nonzero}
    .fil1 {fill:url(#id0)}
   ]]>
  </style>
  <linearGradient id="id0" gradientUnits="userSpaceOnUse" x1="1338.89" y1="1109.89" x2="1338.89" y2="1763.9">
   <stop offset="0" style="stop-opacity:1; stop-color:#FEFEFE"/>
   <stop offset="1" style="stop-opacity:1; stop-color:#96989A"/>
  </linearGradient>
 </defs>
 <g id="Layer_x0020_1">
  <metadata id="CorelCorpID_0Corel-Layer"/>
  <rect class="fil0" y="-375" width="3299.99" height="3300"/>
 </g>
 <g id="Layer_x0020_1_0">
  <metadata id="CorelCorpID_1Corel-Layer"/>
  <g id="_1311527825968">
   <path class="fil1 str0" d="M3273.25 963.81l-6.47 -24.69c-10.28,-39.5 -30.87,-61.25 -54.97,-92.75l-11.65 -15.28 -19.28 0c-18.16,0 -36.6,-1.28 -54.75,-0.06l-1.85 0.09c-18.25,0.13 -36.47,1.59 -54.62,3.03 -17.06,1.38 -34.07,3.06 -51.1,4.38l-2 0.15 -1.93 0.35c-10.13,1.84 -20.38,2.87 -30.66,3.37l-31.59 1.59 0 -31 -12.03 -12 -0.88 -1.03c-8.94,-10.72 -15.12,-23.78 -25.72,-32.75 -28.34,-23.93 -59.18,-44.62 -86.9,-69.43l-24.19 -21.66 -25.69 19.94c-27.41,21.34 -37.5,28.93 -51.47,62.43 -16.97,36.85 -32.12,74.5 -49.15,111.35l-0.29 0.56 -0.49 1.31c-1.41,3.44 -2.75,6.88 -4.16,10.31l-6.06 14.97 -15.85 3.22c-33.87,6.88 -67.62,14.19 -101.53,20.75l-1.69 0.32 -1.65 0.46c-31.31,8.94 -62.72,17.85 -93.6,28.25l-2.62 0.88 -2.5 1.25c-30.06,14.97 -46.44,38.94 -46.44,72.84l0 8 3.16 7.35c6.22,14.56 14.18,28.15 23.84,40.68l54.59 70.69 -86.21 -23.22c-6.88,-1.87 -13.75,-3.65 -20.66,-5.37 -9.44,-2.35 -17.69,-1.82 -27.31,-1.16l-1.07 0.06 -12.53 -0.03 -10.75 8.78c-32.4,26.5 -65.47,52.22 -97.19,79.57 -26.15,22.53 -51.93,45.56 -77.25,69.06l-68.75 63.84 18.79 -91.9c2.25,-11.04 4.46,-22.07 6.56,-32.57l0.31 -1.68c1.88,-11.1 0.56,-23.04 0.56,-34.25l0 -14.1 -9.03 -10.84c-7.56,-9.13 -15.5,-17.91 -22.93,-27.19l-6.85 -8.56 -10.34 -3.72c-31.47,-11.31 -63.44,-21.19 -95.19,-31.75l-1.53 -0.56c-22.69,-8.94 -46.47,-7.22 -68.5,2.81l-48.94 22.25 6.13 -54.94 -11.1 -12.84c-32.34,-37.44 -69.47,-45.32 -109.69,-70.44l-22.31 -13.94 -21.25 15.47c-22.65,16.5 -38.37,35.69 -49.44,61.47l-4.46 10.5 1.87 11.25c1.22,7.25 3.22,13.75 3.78,21.25l0.06 1.13 0 15.09 39.13 44.69 -43.59 14.03c-3.75,1.22 -7.53,2.47 -11.32,3.72l-11.97 4 -7.37 10.28c-7.56,10.59 -14.5,21.69 -20.31,33.34l-20.44 40.88 -29.47 -34.91c-0.81,-0.97 -1.62,-1.9 -2.47,-2.87l-4.56 -5.22 -6.09 -3.35c-34.94,-19.06 -74.35,-29.09 -109.72,-48.25l-20.63 -11.15 -19.5 12.97c-9.69,6.46 -19.34,12.96 -28.81,19.75l-2.59 1.81 -2.5 2.53 -0.94 0.78c-6.91,5.94 -14.38,10.84 -21.5,16.47l-1.38 1c-8.62,6.03 -16.37,14.72 -25.09,22 -1.31,1.03 -2.56,2.03 -3.88,3.06l-31.43 24.69 -15.03 -37.03c-3.5,-8.59 -8.63,-16.5 -14.75,-23.47l-3.94 -4.5 -5.1 -3.09c-34.78,-21.19 -76.18,-30.91 -113.03,-48.6l-28.22 -13.56 9.13 -25.53c1.72,-4.75 3.25,-9.56 4.62,-14.44l0.63 -2.19 0.47 -2.84 0.97 -6.34 3.97 -5.72c15.03,-21.66 18.87,-45.94 27.09,-70.5l0.62 -1.81 0.41 -1.88c21.94,-96.06 -5.88,-181.66 -74.84,-251.09l-1.22 -1.25 -1.35 -1.13c-16.9,-14.16 -33.28,-28.88 -50.9,-43.62 -50.25,-44.82 -109.5,-62.69 -175.97,-64.69 -94.72,-2.85 -187.44,17.93 -273.28,57.65 -17.28,8 -35.22,14.04 -53.57,21.69 -18.47,7.03 -36.59,15.28 -54.65,25.16 -58.63,30.03 -113.63,67.06 -163.85,109.69l-1.18 0.96c-57.75,44.19 -111.91,94.25 -155.47,154.44 -30.53,38.47 -54.82,82.03 -75.38,126.19l-0.4 0.84 -0.57 1.47c-9.75,24.28 -10.4,48.72 -2.18,73.53l1.53 4.63 2.68 4.12c21.44,33 52.03,44.78 86.28,60.88l7.88 3.69 43.53 0 -7.06 35.93c-9.1,46.1 -15.72,92.69 -19.91,140.5 -4.28,35.22 -6.81,70.53 -12.62,105.32l-0.25 1.59c-10.5,79.66 -6.25,160.06 1.31,239.78l0.15 1.63 0.32 1.59c10.06,53.31 34.75,92.34 84.68,114.56 41.91,17.5 82.69,28.31 126.91,12.5l5.53 -1.97 5.85 0.25c1.78,0.07 3.56,0.16 5.34,0.16l52.34 0 -15.06 -50.16c-2.91,-9.62 -4.75,-19.37 -7.16,-29.09l-0.56 -2.34 -0.22 -2.38c-0.72,-8.38 -0.62,-16.72 -0.62,-25.13 0,-55.34 9.94,-109.53 18.34,-163.96l2.88 -18.57 17.9 -5.59c4.75,-1.47 9.44,-3 14.91,-5 5.38,-1.78 9.44,-4.53 13.69,-8.12l4.44 -3.75 17.28 -5.79 1.9 -18.68 31.88 6.4 13.62 -9.56c11.19,-7.88 23.13,-15.38 35.82,-20.53l0.78 -0.28 1.4 -0.66c22.72,-10.56 44,-24.06 64.72,-36.81 28.31,-18.38 55.97,-37.78 84.47,-55.88l1.13 -0.72 1.18 -0.62c30.13,-15.56 57.35,-37.34 79.78,-62.72l3.25 -3.72 4.32 -2.47c15.25,-8.78 33,-17 46.47,-29.87 8.09,-7.31 16.21,-14.6 24.28,-21.94l71.06 -64.59 -21.5 93.62c-2.63,11.41 -5.13,22.88 -7.5,34.38 -11.38,55.03 -22.5,110.09 -30.97,165.31l-0.31 1.97c-4.69,42.53 -12.5,86.94 -1.97,129.25l0.44 1.75 0.62 1.75c19.59,55.03 60.22,87.81 118.38,98.62 19.34,4.32 40.96,-0.03 59.62,-5.62l35.56 -10.66 -10.78 -43.25 17.07 -6.78 6.62 -13.28c2.22,-4.41 5.31,-8.34 8.81,-11.81l3.85 -3.81 2.62 -4.75c39.47,-70.6 88.31,-135.25 139.44,-197.72l15.94 -19.47 21.96 12.22c30.47,16.93 64.91,28.34 97.35,40.87l6.47 2.47 6.87 0.13c3.38,0.06 6.72,-0.16 10.07,-0.57l40.47 -5.09 -7.1 40.19c-4.09,23.22 -7.44,46.56 -10.34,69.97l-0.16 1.24 -0.06 1.29c-1.84,35.65 -0.81,66.93 13.25,100.34l2.97 7.03 5.37 5.41c41.25,41.25 95.25,53.75 152.1,48.4l30.34 -2.84 4.53 -30.16c1.1,-7.43 2.28,-14.84 3.5,-22.22l19.75 -118.18 38.19 112.65 3.72 5.04c24.44,32.93 55.65,43.93 94.25,52.84 12.28,2.84 24.65,5.19 36.19,10.5l18.25 8.4 17.46 -9.96c6.97,-4 13.66,-8.47 20.72,-12.38l2.6 -1.41 2.81 -0.9c7.72,-2.47 15.56,-4.81 23.09,-7.85l15.41 -6.18 9.78 -24.35 13.16 -4.4c3.9,-1.32 7.78,-2.69 11.65,-4.07l5.97 -2.15 5.5 -4.41c11.16,-8.44 23.35,-16.5 30.5,-28.88l1.22 -2.09 1.53 -1.91c28.28,-34.5 56.03,-69.37 83.63,-104.4l52.87 -67.13 0.88 85.41c0.09,10.16 0.94,20.09 2.87,31.28 4.38,32.88 11.22,65.41 15.94,98.28l1.59 11.16 7.29 8.56c31.03,36.59 65.03,42.47 110.78,51.19 18.37,3.97 38.03,4.69 56.78,5.69l33.69 1.78 6.56 -33.1c10.75,-54.18 23.72,-107.9 36.4,-161.65 1.29,-5.38 2.57,-10.72 3.97,-16.03l0.19 -0.57 0.25 -1.22c9.88,-45.4 16.19,-91.56 28.1,-136.5l0.43 -1.62 0.6 -1.53c2.81,-7.31 5.37,-14.72 7.81,-22.16l8.44 -25.87 53.22 11.65 -3.16 27.07c-3.78,32.22 -7.13,64.47 -10.53,96.72 -5.84,55.68 -0.47,111.03 5.87,166.37l1.94 16.66 13.41 10.06c29.03,21.78 60.44,42.47 94.65,55.06l11.28 4.16 11.66 -2.91c17.44,-4.34 35.19,-8.16 52.09,-14.31l22.5 -8.22 2.85 -23.75c3.75,-31.34 6.25,-62.78 12.75,-93.75 6.72,-32.12 8.4,-64.78 16.94,-98.22 13.9,-45.47 19.43,-93.47 28.37,-141.47 11.25,-48.12 18.5,-97 31.47,-144.78 19,-69.94 33.84,-140.91 51.34,-212.56 2.04,-6.97 3.69,-14 5.5,-21l5.13 -19.91 20.34 -2.5c30.1,-3.72 59.6,-11.97 89.53,-16.87 53.16,-8.72 106.22,-19.94 160.35,-19.94 32.4,0 56.5,-3.94 82.53,-24.41l20.06 -15.78 0 0.01zm-2687.19 -5.5l-4.43 -13.38 10.25 -12.78c10.12,-12.62 13,-23.97 11.78,-40.25l-0.16 -1.97 -4.5 -24.28 22.06 -9.5c29.72,-12.84 59.63,-25.31 89.54,-37.78l1.75 -0.72 1.87 -0.53c13.31,-3.62 27.41,-5.19 40.47,-9.25 45.63,-14.22 90.81,-21.16 138.66,-18.91l23.94 1.13 4.25 23.56c2.46,13.6 1.68,27.78 0.43,42.35 -2.47,22.06 -12.03,44.31 -19.18,65.28l-0.66 1.69c-6.53,15.96 -12.06,32.37 -17.06,48.93l-2.22 7.38 -5.5 5.4c-18,17.69 -33.41,38.91 -47.66,60.91 -34.41,49.47 -78.56,92.16 -121.25,134.37 -54.03,53.44 -113.97,100.35 -175.75,144.41l-67.31 47.94 20.72 -80c7.5,-29.03 15.43,-57.94 23.12,-86.91 20.03,-75.43 39.13,-162.31 70.72,-233.31l6.13 -13.78 -0.01 0z"/>
   <g>
    <path class="fil0" d="M427.66 1441.53c-4.38,-7.32 -5.85,-8.75 -5.85,-10.22 11.69,-87.69 97.91,-409.22 127.16,-475 -2.94,-8.75 -2.94,-17.53 -4.41,-24.85 5.88,-13.15 26.32,-17.53 24.88,-36.53 -2.94,-16.09 -19,-17.53 -33.63,-30.69 13.16,-11.71 24.85,-24.87 38,-39.46 7.32,0 16.07,0 26.32,0 33.59,-14.63 68.68,-29.25 103.75,-43.85 14.62,-4.37 29.22,-5.84 43.84,-10.22 51.16,-16.09 100.84,-23.4 154.94,-20.47 14.62,0 29.22,1.44 43.84,14.6 20.47,26.31 21.91,58.47 19,93.56 -2.94,26.28 -13.15,51.13 -21.9,77.44 -7.35,17.53 -14.63,39.47 -21.94,65.78 -19,14.63 -38,39.44 -54.1,64.31 -36.53,52.63 -81.84,97.91 -127.12,141.78 -87.72,87.69 -190,156.38 -292.31,225.07 -5.85,4.37 -14.63,5.84 -20.47,8.74l0 0.01zm353.69 -75.97c23.37,-14.63 39.43,-20.5 49.68,-30.72 29.22,-26.28 58.47,-52.6 86.25,-80.38 29.22,-32.15 54.07,-67.25 83.32,-100.84 7.28,-10.25 5.81,-24.84 18.96,-35.06 16.1,-13.16 24.88,-33.66 30.69,-54.1 1.47,-8.78 4.41,-17.53 8.78,-24.84 14.63,-19 17.53,-42.41 24.85,-64.31 19,-83.31 -4.38,-154.91 -64.32,-214.85 -17.53,-14.59 -33.59,-29.21 -51.15,-43.84 -43.85,-39.47 -94.97,-54.06 -152,-55.53 -89.13,-2.91 -173.91,16.06 -255.75,54.09 -16.1,7.28 -36.53,14.6 -54.06,21.91 -19.04,7.31 -35.1,14.59 -51.16,23.37 -57,29.25 -109.63,64.32 -159.31,106.69 -55.53,42.38 -108.16,90.63 -149.07,147.63 -29.25,36.53 -52.62,78.9 -71.62,119.84 -5.84,14.63 -7.31,29.22 -1.47,46.78 16.09,24.85 45.31,35.06 70.16,46.75 19,0 35.09,0 52.62,0 0,-14.62 0,-24.84 1.44,-36.53 4.37,-13.16 7.31,-24.84 10.25,-39.47 29.22,-10.22 32.16,-48.22 57,-67.25 5.84,5.88 5.84,13.16 4.37,19.03 -42.37,109.6 -68.68,225.07 -78.9,341.97 -4.41,36.57 -7.31,74.57 -13.16,109.63 -10.25,77.47 -5.87,154.94 1.47,230.94 7.28,39.46 23.34,68.68 62.81,86.22 35.1,14.62 68.72,24.84 106.72,7.31 5.85,-1.47 11.66,0 20.44,0 -4.38,-14.63 -5.85,-24.85 -8.78,-35.1 -1.44,-11.68 -1.44,-24.84 -1.44,-35.06 0,-58.47 10.22,-114 19,-171 1.47,-14.59 5.84,-29.22 10.22,-43.84 16.09,-4.38 33.62,-8.78 49.72,-14.63 4.37,-1.44 8.75,-8.75 13.12,-10.22 1.47,-14.62 -14.59,-20.47 -8.75,-33.62 24.85,-4.38 48.22,4.4 70.16,8.78 14.59,-10.25 29.22,-19 43.84,-24.84 21.91,-10.22 42.38,-23.38 61.38,-35.1 29.22,-18.97 58.44,-39.47 86.22,-57 32.15,-16.06 58.47,-39.43 77.47,-62.81l0 0z"/>
    <path id="_1" class="fil2" d="M427.66 1441.53c-4.38,-7.32 -5.85,-8.75 -5.85,-10.22 11.69,-87.69 97.91,-409.22 127.16,-475 -2.94,-8.75 -2.94,-17.53 -4.41,-24.85 5.88,-13.15 26.32,-17.53 24.88,-36.53 -2.94,-16.09 -19,-17.53 -33.63,-30.69 13.16,-11.71 24.85,-24.87 38,-39.46 7.32,0 16.07,0 26.32,0 33.59,-14.63 68.68,-29.25 103.75,-43.85 14.62,-4.37 29.22,-5.84 43.84,-10.22 51.16,-16.09 100.84,-23.4 154.94,-20.47 14.62,0 29.22,1.44 43.84,14.6 20.47,26.31 21.91,58.47 19,93.56 -2.94,26.28 -13.15,51.13 -21.9,77.44 -7.35,17.53 -14.63,39.47 -21.94,65.78 -19,14.63 -38,39.44 -54.1,64.31 -36.53,52.63 -81.84,97.91 -127.12,141.78 -87.72,87.69 -190,156.38 -292.31,225.07 -5.85,4.37 -14.63,5.84 -20.47,8.74l0 0.01zm353.69 -75.97c23.37,-14.63 39.43,-20.5 49.68,-30.72 29.22,-26.28 58.47,-52.6 86.25,-80.38 29.22,-32.15 54.07,-67.25 83.32,-100.84 7.28,-10.25 5.81,-24.84 18.96,-35.06 16.1,-13.16 24.88,-33.66 30.69,-54.1 1.47,-8.78 4.41,-17.53 8.78,-24.84 14.63,-19 17.53,-42.41 24.85,-64.31 19,-83.31 -4.38,-154.91 -64.32,-214.85 -17.53,-14.59 -33.59,-29.21 -51.15,-43.84 -43.85,-39.47 -94.97,-54.06 -152,-55.53 -89.13,-2.91 -173.91,16.06 -255.75,54.09 -16.1,7.28 -36.53,14.6 -54.06,21.91 -19.04,7.31 -35.1,14.59 -51.16,23.37 -57,29.25 -109.63,64.32 -159.31,106.69 -55.53,42.38 -108.16,90.63 -149.07,147.63 -29.25,36.53 -52.62,78.9 -71.62,119.84 -5.84,14.63 -7.31,29.22 -1.47,46.78 16.09,24.85 45.31,35.06 70.16,46.75 19,0 35.09,0 52.62,0 0,-14.62 0,-24.84 1.44,-36.53 4.37,-13.16 7.31,-24.84 10.25,-39.47 29.22,-10.22 32.16,-48.22 57,-67.25 5.84,5.88 5.84,13.16 4.37,19.03 -42.37,109.6 -68.68,225.07 -78.9,341.97 -4.41,36.57 -7.31,74.57 -13.16,109.63 -10.25,77.47 -5.87,154.94 1.47,230.94 7.28,39.46 23.34,68.68 62.81,86.22 35.1,14.62 68.72,24.84 106.72,7.31 5.85,-1.47 11.66,0 20.44,0 -4.38,-14.63 -5.85,-24.85 -8.78,-35.1 -1.44,-11.68 -1.44,-24.84 -1.44,-35.06 0,-58.47 10.22,-114 19,-171 1.47,-14.59 5.84,-29.22 10.22,-43.84 16.09,-4.38 33.62,-8.78 49.72,-14.63 4.37,-1.44 8.75,-8.75 13.12,-10.22 1.47,-14.62 -14.59,-20.47 -8.75,-33.62 24.85,-4.38 48.22,4.4 70.16,8.78 14.59,-10.25 29.22,-19 43.84,-24.84 21.91,-10.22 42.38,-23.38 61.38,-35.1 29.22,-18.97 58.44,-39.47 86.22,-57 32.15,-16.06 58.47,-39.43 77.47,-62.81l0 0z"/>
   </g>
   <path class="fil3" d="M1277.81 1392.49c-1.87,0.91 -3.34,0.91 -3.34,0.91 0.41,-0.91 2.72,-2.72 3.53,-4.56 0.63,1.84 0.22,2.75 -0.19,3.65z"/>
   <path class="fil3" d="M1749.56 1131.68c23.38,-2.9 45.32,-2.9 59.94,-24.84 0,-10.22 1.44,-24.84 2.91,-38 -27.78,-32.16 -65.78,-40.94 -100.85,-62.84 -16.06,11.71 -27.78,24.84 -36.53,45.31 1.47,8.78 4.38,19 4.38,29.22 20.47,23.4 39.47,40.93 70.15,51.15l0 0z"/>
   <g>
    <path class="fil4" d="M1637.03 1194.56c-7.31,10.22 -14.62,21.9 -20.47,35.06 -29.22,54.06 -52.59,109.62 -67.21,163.69 -24.85,84.78 -45.32,171 -55.54,257.22 -1.46,29.25 -1.46,55.53 10.22,83.31 32.22,32.19 73.78,41.59 120.91,37.19 11.12,-74.47 29.34,-148.82 50.78,-222.03 10.59,-39.19 25.78,-79.16 44.5,-118.75l1.59 -4.79c10.22,-32.15 21.91,-61.37 27.75,-93.53 5.85,-33.62 30.69,-58.47 30.69,-96.47 -2.9,-4.37 -7.31,-11.68 -11.69,-17.53 -20.46,-10.22 -37.99,-20.47 -58.46,-29.25 -7.32,-4.37 -17.54,-5.84 -26.32,-8.75 -14.59,4.38 -29.22,8.75 -46.75,14.63l0 0z"/>
    <path id="_1_1" class="fil3" d="M1637.03 1194.56c-7.31,10.22 -14.62,21.9 -20.47,35.06 -29.22,54.06 -52.59,109.62 -67.21,163.69 -24.85,84.78 -45.32,171 -55.54,257.22 -1.46,29.25 -1.46,55.53 10.22,83.31 32.22,32.19 73.78,41.59 120.91,37.19 11.12,-74.47 29.34,-148.82 50.78,-222.03 10.59,-39.19 25.78,-79.16 44.5,-118.75l1.59 -4.79c10.22,-32.15 21.91,-61.37 27.75,-93.53 5.85,-33.62 30.69,-58.47 30.69,-96.47 -2.9,-4.37 -7.31,-11.68 -11.69,-17.53 -20.46,-10.22 -37.99,-20.47 -58.46,-29.25 -7.32,-4.37 -17.54,-5.84 -26.32,-8.75 -14.59,4.38 -29.22,8.75 -46.75,14.63l0 0z"/>
   </g>
   <g>
    <path class="fil4" d="M1061.94 1163.84c-18.97,19 -30.69,38 -39.44,58.47 -29.25,58.47 -46.78,124.22 -59.94,190 -11.68,54.09 -21.9,106.69 -30.68,163.69 -4.38,39.47 -11.69,80.37 -2.91,115.47 16.06,45.31 48.22,65.75 87.69,73.06 13.15,2.94 27.75,0 42.37,-4.38 -2.93,-11.68 -7.31,-21.93 -10.25,-30.68 2.94,-8.78 4.41,-13.16 7.32,-16.1 11.71,-2.9 20.46,-4.37 27.78,-7.31 4.37,-8.75 10.22,-16.06 16.09,-21.9 42.38,-76.01 94.97,-144.69 149.06,-210.47 17.53,-20.44 35.06,-40.91 46.75,-73.07 8.78,8.78 14.63,-5.84 29.25,4.38 -5.68,28.4 -7.31,25.69 -7.78,51.12 7.03,9.19 92.66,41.6 105.47,46.53 17.84,0.32 46.22,-17.43 50.19,-35.43 8.65,-39.38 26.31,-98.75 49.4,-166 -7.28,-20.44 1.47,-43.85 -18.96,-67.22 -32.16,-17.53 -74.57,-29.22 -109.63,-48.22 -8.78,5.84 -17.53,11.69 -27.78,19 -5.84,5.84 -17.53,13.16 -27.78,21.9 -7.28,4.41 -14.59,13.16 -23.38,20.47 -7.31,5.85 -14.59,11.69 -23.37,19 -8.78,7.32 -16.06,11.69 -21.91,20.47 -11.68,8.78 -16.09,17.53 -24.84,24.85 -8.78,7.31 -16.09,16.06 -21.94,21.9 -8.78,5.88 -17.53,14.63 -21.9,20.47 -10.25,10.25 -17.57,19 -26.32,26.31 -5.84,7.31 -8.78,17.53 -23.4,17.53 -2.91,-26.31 19,-46.75 17.56,-70.15 19,-23.38 26.28,-52.6 33.59,-80.38 5.85,-13.15 2.94,-24.84 -7.31,-36.53 -33.59,-20.47 -73.06,-29.22 -109.59,-46.78 -8.78,-2.91 -13.16,0 -23.41,0l0 0z"/>
    <path id="_1_2" class="fil3" d="M1061.94 1163.84c-18.97,19 -30.69,38 -39.44,58.47 -29.25,58.47 -46.78,124.22 -59.94,190 -11.68,54.09 -21.9,106.69 -30.68,163.69 -4.38,39.47 -11.69,80.37 -2.91,115.47 16.06,45.31 48.22,65.75 87.69,73.06 13.15,2.94 27.75,0 42.37,-4.38 -2.93,-11.68 -7.31,-21.93 -10.25,-30.68 2.94,-8.78 4.41,-13.16 7.32,-16.1 11.71,-2.9 20.46,-4.37 27.78,-7.31 4.37,-8.75 10.22,-16.06 16.09,-21.9 42.38,-76.01 94.97,-144.69 149.06,-210.47 17.53,-20.44 35.06,-40.91 46.75,-73.07 8.78,8.78 14.63,-5.84 29.25,4.38 -5.68,28.4 -7.31,25.69 -7.78,51.12 7.03,9.19 92.66,41.6 105.47,46.53 17.84,0.32 46.22,-17.43 50.19,-35.43 8.65,-39.38 26.31,-98.75 49.4,-166 -7.28,-20.44 1.47,-43.85 -18.96,-67.22 -32.16,-17.53 -74.57,-29.22 -109.63,-48.22 -8.78,5.84 -17.53,11.69 -27.78,19 -5.84,5.84 -17.53,13.16 -27.78,21.9 -7.28,4.41 -14.59,13.16 -23.38,20.47 -7.31,5.85 -14.59,11.69 -23.37,19 -8.78,7.32 -16.06,11.69 -21.91,20.47 -11.68,8.78 -16.09,17.53 -24.84,24.85 -8.78,7.31 -16.09,16.06 -21.94,21.9 -8.78,5.88 -17.53,14.63 -21.9,20.47 -10.25,10.25 -17.57,19 -26.32,26.31 -5.84,7.31 -8.78,17.53 -23.4,17.53 -2.91,-26.31 19,-46.75 17.56,-70.15 19,-23.38 26.28,-52.6 33.59,-80.38 5.85,-13.15 2.94,-24.84 -7.31,-36.53 -33.59,-20.47 -73.06,-29.22 -109.59,-46.78 -8.78,-2.91 -13.16,0 -23.41,0l0 0z"/>
   </g>
   <g>
    <path class="fil5" d="M2714.88 1770.37c4.37,-36.53 7.31,-67.22 13.15,-96.47 7.32,-33.59 8.78,-67.22 17.53,-100.84 13.16,-42.38 19,-92.07 27.79,-138.85 11.68,-49.68 19,-97.9 32.15,-147.59 19,-68.69 33.6,-140.31 51.16,-211.91 4.37,-14.62 7.28,-29.25 11.68,-42.4 2.94,-10.22 11.69,-20.47 17.54,-30.69 10.21,1.47 17.53,2.94 26.31,1.47 33.62,-2.94 62.84,-11.69 96.47,-17.56 55.53,-8.75 111.06,-20.44 166.59,-20.44 19,0 38,0 58.47,-16.1 -8.78,-33.59 -29.22,-54.06 -48.22,-78.9 -17.56,0 -36.56,-1.47 -54.09,0 -17.53,0 -35.06,1.47 -54.06,2.94 -17.54,1.43 -32.16,2.9 -51.16,4.37 -16.09,2.91 -35.09,4.38 -54.06,4.38 -16.1,0 -32.19,13.15 -51.19,7.31 -1.44,-20.47 -2.91,-40.94 -2.91,-59.94 -10.22,-10.22 -16.06,-24.84 -24.84,-32.16 -29.25,-24.81 -59.94,-45.31 -87.69,-70.15 -26.31,20.47 -29.25,21.94 -39.47,46.78 -17.53,38 -32.15,74.53 -49.68,112.53 -5.85,14.62 -11.69,29.25 -19.01,45.31 -46.78,8.75 -92.09,19 -137.37,27.78 -30.69,8.75 -61.38,17.53 -92.06,27.75 -11.72,5.85 -24.88,14.63 -24.88,38 13.16,30.69 33.63,51.16 55.56,67.25 20.44,4.38 39.44,13.16 59.91,4.38 26.31,-13.16 55.53,-17.53 81.84,-42.41 1.47,-1.44 4.38,0 10.22,-1.44 2.94,2.91 5.88,8.78 10.25,13.16 -1.47,8.78 -2.93,17.53 -4.37,26.31 -16.1,74.53 -33.63,150.53 -45.31,226.53 -17.57,86.22 -26.32,172.44 -35.1,257.22 -5.84,54.06 0,106.69 5.85,157.85 29.25,21.93 57,39.46 84.78,49.68 17.53,-4.37 32.15,-7.31 48.21,-13.15l0.01 0z"/>
    <path id="_1_3" class="fil5" d="M2714.88 1770.37c4.37,-36.53 7.31,-67.22 13.15,-96.47 7.32,-33.59 8.78,-67.22 17.53,-100.84 13.16,-42.38 19,-92.07 27.79,-138.85 11.68,-49.68 19,-97.9 32.15,-147.59 19,-68.69 33.6,-140.31 51.16,-211.91 4.37,-14.62 7.28,-29.25 11.68,-42.4 2.94,-10.22 11.69,-20.47 17.54,-30.69 10.21,1.47 17.53,2.94 26.31,1.47 33.62,-2.94 62.84,-11.69 96.47,-17.56 55.53,-8.75 111.06,-20.44 166.59,-20.44 19,0 38,0 58.47,-16.1 -8.78,-33.59 -29.22,-54.06 -48.22,-78.9 -17.56,0 -36.56,-1.47 -54.09,0 -17.53,0 -35.06,1.47 -54.06,2.94 -17.54,1.43 -32.16,2.9 -51.16,4.37 -16.09,2.91 -35.09,4.38 -54.06,4.38 -16.1,0 -32.19,13.15 -51.19,7.31 -1.44,-20.47 -2.91,-40.94 -2.91,-59.94 -10.22,-10.22 -16.06,-24.84 -24.84,-32.16 -29.25,-24.81 -59.94,-45.31 -87.69,-70.15 -26.31,20.47 -29.25,21.94 -39.47,46.78 -17.53,38 -32.15,74.53 -49.68,112.53 -5.85,14.62 -11.69,29.25 -19.01,45.31 -46.78,8.75 -92.09,19 -137.37,27.78 -30.69,8.75 -61.38,17.53 -92.06,27.75 -11.72,5.85 -24.88,14.63 -24.88,38 13.16,30.69 33.63,51.16 55.56,67.25 20.44,4.38 39.44,13.16 59.91,4.38 26.31,-13.16 55.53,-17.53 81.84,-42.41 1.47,-1.44 4.38,0 10.22,-1.44 2.94,2.91 5.88,8.78 10.25,13.16 -1.47,8.78 -2.93,17.53 -4.37,26.31 -16.1,74.53 -33.63,150.53 -45.31,226.53 -17.57,86.22 -26.32,172.44 -35.1,257.22 -5.84,54.06 0,106.69 5.85,157.85 29.25,21.93 57,39.46 84.78,49.68 17.53,-4.37 32.15,-7.31 48.21,-13.15l0.01 0z"/>
   </g>
   <g>
    <path class="fil4" d="M2014.22 1466.4c-2.91,2.91 -4.37,7.28 -5.84,7.28 -5.85,0 -5.85,-2.9 2.93,-8.75 -1.47,-14.62 0,-26.31 4.38,-40.93 26.31,-68.69 40.9,-140.32 55.53,-213.38 1.47,-8.78 0,-17.53 0,-27.78 -7.31,-8.75 -17.53,-20.44 -23.41,-27.75 -36.5,-13.16 -65.75,-21.94 -96.43,-32.16 -10.22,-4.37 -23.38,-5.84 -39.47,1.47 -5.85,5.85 -14.6,14.6 -20.47,23.38 -10.22,13.15 -17.53,24.84 -23.38,38 -26.31,54.06 -51.15,106.68 -64.31,165.15 -20.44,86.22 -40.91,171 -52.59,257.22 -2.94,43.85 -4.41,83.31 8.75,122.75 29.22,39.47 77.47,33.63 115.47,51.16 10.22,-5.85 19,-11.69 27.75,-16.07 8.78,-2.93 19.03,-5.84 26.31,-8.78 2.94,-7.31 5.84,-16.06 8.78,-24.84 11.69,-4.37 26.31,-8.75 42.38,-14.63 7.31,-5.81 19,-11.68 23.37,-21.9 33.63,-40.91 67.25,-83.31 99.41,-124.22 8.78,-8.78 17.53,-20.47 26.31,-29.25 29.22,-35.06 59.91,-68.69 92.06,-102.28 0,-1.47 1.47,-1.47 4.38,-1.47 7.31,10.22 4.4,24.84 2.93,35.06 -4.37,46.78 -8.78,92.1 -13.15,133 -1.47,17.56 -1.47,30.69 1.47,46.78 4.37,33.6 11.68,68.69 16.06,99.38 24.84,29.22 57,32.16 87.69,38 17.12,3.69 34.28,4.28 52.25,5.22 10.75,-54.25 23.75,-108.35 36.72,-163.03 1.31,-5.82 2.72,-11.57 4.25,-17.25 9.03,-41.28 22,-114.41 29.56,-142.1 11.69,-29.22 19,-59.9 29.22,-89.15 13.16,-30.69 21.91,-62.85 33.62,-95 2.91,-30.69 14.63,-64.29 -17.53,-96.44 -36.56,-8.78 -78.93,-21.94 -119.84,-32.16 -5.88,-1.47 -13.16,0 -17.56,0 -32.16,26.28 -65.75,52.6 -96.44,78.91 -74.53,64.31 -144.69,131.53 -210.47,201.69 -10.25,8.78 -20.47,16.09 -30.69,24.87l0 0z"/>
    <path id="_1_4" class="fil6" d="M2014.22 1466.4c-2.91,2.91 -4.37,7.28 -5.84,7.28 -5.85,0 -5.85,-2.9 2.93,-8.75 -1.47,-14.62 0,-26.31 4.38,-40.93 26.31,-68.69 40.9,-140.32 55.53,-213.38 1.47,-8.78 0,-17.53 0,-27.78 -7.31,-8.75 -17.53,-20.44 -23.41,-27.75 -36.5,-13.16 -65.75,-21.94 -96.43,-32.16 -10.22,-4.37 -23.38,-5.84 -39.47,1.47 -5.85,5.85 -14.6,14.6 -20.47,23.38 -10.22,13.15 -17.53,24.84 -23.38,38 -26.31,54.06 -51.15,106.68 -64.31,165.15 -20.44,86.22 -40.91,171 -52.59,257.22 -2.94,43.85 -4.41,83.31 8.75,122.75 29.22,39.47 77.47,33.63 115.47,51.16 10.22,-5.85 19,-11.69 27.75,-16.07 8.78,-2.93 19.03,-5.84 26.31,-8.78 2.94,-7.31 5.84,-16.06 8.78,-24.84 11.69,-4.37 26.31,-8.75 42.38,-14.63 7.31,-5.81 19,-11.68 23.37,-21.9 33.63,-40.91 67.25,-83.31 99.41,-124.22 8.78,-8.78 17.53,-20.47 26.31,-29.25 29.22,-35.06 59.91,-68.69 92.06,-102.28 0,-1.47 1.47,-1.47 4.38,-1.47 7.31,10.22 4.4,24.84 2.93,35.06 -4.37,46.78 -8.78,92.1 -13.15,133 -1.47,17.56 -1.47,30.69 1.47,46.78 4.37,33.6 11.68,68.69 16.06,99.38 24.84,29.22 57,32.16 87.69,38 17.12,3.69 34.28,4.28 52.25,5.22 10.75,-54.25 23.75,-108.35 36.72,-163.03 1.31,-5.82 2.72,-11.57 4.25,-17.25 9.03,-41.28 22,-114.41 29.56,-142.1 11.69,-29.22 19,-59.9 29.22,-89.15 13.16,-30.69 21.91,-62.85 33.62,-95 2.91,-30.69 14.63,-64.29 -17.53,-96.44 -36.56,-8.78 -78.93,-21.94 -119.84,-32.16 -5.88,-1.47 -13.16,0 -17.56,0 -32.16,26.28 -65.75,52.6 -96.44,78.91 -74.53,64.31 -144.69,131.53 -210.47,201.69 -10.25,8.78 -20.47,16.09 -30.69,24.87l0 0z"/>
   </g>
   <path class="fil7" d="M2767.5 894.93c-1.47,-14.62 -1.47,-24.84 7.31,-33.62 14.6,2.94 13.16,14.62 8.78,27.78 -5.87,1.47 -11.71,2.91 -17.56,4.37 0,7.32 0,16.07 -2.94,24.85 -10.21,30.68 -21.9,58.47 -30.68,90.62 -2.91,10.22 -7.28,20.47 -16.07,21.91 -1.47,-2.94 -2.9,-5.85 -2.9,-7.31 11.68,-46.75 26.28,-89.13 51.12,-125.69 0,-1.47 1.47,-1.47 2.94,-2.91l0 0zm-806.62 527.47c2.93,13.16 2.93,23.41 -2.91,35.1 -14.63,-13.16 -1.47,-21.94 7.28,-32.16 0,-23.38 -8.75,-45.31 14.63,-68.69 5.84,-19 2.93,-33.62 24.84,-46.78 -2.91,-26.31 -16.06,-51.16 17.53,-70.16 -4.37,-20.43 -18.97,-45.31 8.78,-57 8.78,0 16.1,1.47 20.47,7.32 2.91,24.84 -7.31,42.4 -39.47,49.68 4.41,26.32 14.63,49.72 -14.62,65.79 -1.47,19 2.93,40.9 -17.53,51.15 0,23.38 14.62,49.69 -19,65.75l0 0zm-1632.6 -236.62c0,0 0,-2.94 0,-4.38 0,0 0,0 -2.93,-2.94 0,2.94 -1.44,4.38 0,7.32 0,0 0,0 2.93,0zm7.31 -40.94c2.91,0 2.91,0 4.38,-1.47 0,0 0,-1.44 0,-4.38 -1.47,2.94 -4.38,2.94 -5.84,4.38 0,0 1.46,1.47 1.46,1.47zm37.97 -207.53c14.63,0 23.41,1.47 26.32,14.62 -35.07,45.28 -39.47,102.28 -57,153.47 14.62,32.16 11.72,65.75 5.87,97.91 -14.62,76 -32.19,147.62 -48.25,220.69 -5.84,33.62 -14.62,68.68 -20.44,102.31 -8.78,10.22 -17.56,10.22 -27.78,0 -4.37,-19 0,-38 2.91,-58.47 1.47,-14.59 5.84,-29.22 5.84,-43.84 1.47,-59.91 13.16,-119.85 23.41,-178.32 14.59,-83.28 35.06,-166.59 59.91,-248.46 4.4,-14.6 10.25,-29.22 16.06,-40.91 2.94,-8.75 8.78,-14.63 13.15,-19l0 0zm869.63 492.56c-5.63,9.09 -7.28,19.13 -22.94,24.59 -4.15,9.13 -2.9,19.16 -20,24.63 -6.06,10 -8.12,20.94 -17.09,30.97 -41.28,51.93 -73.16,105.72 -109,158.56 -3.97,5.47 -7.06,9.13 -12.1,13.69 -11.28,-0.91 -9.81,-7.28 -5.43,-13.69 27.28,-43.72 56.47,-88.37 90.65,-131.22 13.35,-16.41 26.69,-32.81 41.5,-49.22 3.13,-3.62 6.88,-5.47 12.54,-8.19 4.56,-10.03 4.75,-20.03 20,-24.62 5.59,-9.09 5.37,-18.22 21.43,-24.59 2.94,-6.38 5.03,-10.94 10.66,-20.04 7.09,10 -0.81,14.57 -10.22,19.13zm-156.91 24.75c2.91,13.16 2.91,23.37 -2.94,35.06 -14.62,-13.15 -1.46,-21.9 7.32,-32.12 0,-23.41 -8.78,-45.32 14.62,-68.72 5.85,-18.97 2.91,-33.6 24.85,-46.75 -2.94,-26.31 -16.1,-51.16 17.53,-70.16 -4.38,-20.47 -19,-45.31 8.75,-57 8.78,0 16.09,1.47 20.5,7.31 2.9,24.85 -7.35,42.38 -39.47,49.69 4.37,26.31 14.59,49.69 -14.63,65.78 -1.47,19 2.91,40.91 -17.53,51.13 0,23.4 14.63,49.72 -19,65.78l0 0zm1602.28 -282c-1.43,14.59 1.47,30.69 -11.68,39.47 0,14.59 5.84,30.69 -8.75,39.47 -1.47,16.06 1.47,33.59 -2.94,49.65 -17.53,83.32 -24.84,169.57 -36.53,254.32 -1.47,8.78 -2.91,14.62 -5.85,21.93 -11.68,-1.47 -13.15,-11.68 -11.68,-21.93 7.28,-70.16 16.06,-141.75 30.69,-210.47 5.84,-26.28 11.68,-52.6 19,-78.91 1.43,-5.84 4.37,-8.78 8.78,-13.16 0,-16.06 -4.41,-32.15 8.75,-39.46 1.47,-14.6 -2.94,-29.22 10.22,-39.44 0,-10.25 0,-17.56 1.47,-32.16 11.68,16.07 5.84,23.38 -1.47,30.69l-0.01 0zm17.54 -59.94c-1.44,1.47 -2.91,1.47 -2.91,1.47 0,-1.47 1.47,-4.37 1.47,-7.31 1.44,2.94 1.44,4.37 1.44,5.84l0 0zm-280.94 255.38c-2.22,14.62 -0.16,30.69 -13.78,39.47 -0.78,14.59 4.22,30.68 -10.85,39.47 -2.31,16.06 -0.31,33.59 -5.56,49.65 -21.94,83.31 -33.81,169.56 -49.97,254.31 -1.94,8.79 -3.69,14.63 -7,21.94 -11.63,-1.47 -12.53,-11.69 -10.53,-21.94 11,-70.15 23.56,-141.75 41.81,-210.43 7.25,-26.32 14.47,-52.63 23.19,-78.94 1.72,-5.84 4.81,-8.78 9.44,-13.16 0.84,-16.06 -2.69,-32.12 10.87,-39.47 2.22,-14.59 -1.4,-29.22 12.28,-39.43 0.57,-10.22 0.94,-17.57 3.19,-32.16 10.84,16.06 4.59,23.38 -3.09,30.69zm20.69 -59.94c-1.5,1.47 -2.97,1.47 -2.97,1.47 0.06,-1.47 1.68,-4.38 1.84,-7.31 1.28,2.93 1.22,4.37 1.13,5.84l0 0zm-789.04 158.25c2.94,13.16 2.94,23.41 -2.9,35.06 -14.63,-13.12 -1.5,-21.9 7.28,-32.12 0,-23.41 -8.78,-45.32 14.62,-68.72 5.85,-18.97 2.91,-33.6 24.85,-46.75 -2.91,-26.31 -16.07,-51.16 17.53,-70.16 -4.38,-20.44 -18.97,-45.31 8.78,-57 8.75,0 16.09,1.47 20.47,7.31 2.91,24.85 -7.31,42.41 -39.47,49.69 4.37,26.31 14.59,49.69 -14.63,65.78 -1.47,19 2.94,40.91 -17.53,51.13 0,23.4 14.63,49.72 -19,65.78l0 0z"/>
  </g>
 </g>
</svg>
